# 3ds Max Wavefront OBJ Exporter v0.97b - (c)2007 guruware
# File Created: 11.08.2017 16:00:09

#
# object Box014
#

v  -40.0000 40.0000 50.0000
v  40.0000 40.0000 50.0000
v  -40.0000 40.0000 -30.0000
v  40.0000 40.0000 -30.0000
v  -40.0000 200.0000 50.0000
v  40.0000 200.0000 50.0000
v  -40.0000 200.0000 -30.0000
v  40.0000 200.0000 -30.0000
v  -50.0000 85.0000 20.0000
v  -40.0000 85.0000 20.0000
v  -50.0000 85.0000 0.0000
v  -40.0000 85.0000 0.0000
v  -50.0000 120.0000 20.0000
v  -40.0000 120.0000 20.0000
v  -50.0000 120.0000 0.0000
v  -40.0000 120.0000 0.0000
v  -34.0000 5.0000 20.0000
v  -14.0000 5.0000 20.0000
v  -34.0000 5.0000 -0.0000
v  -14.0000 5.0000 -0.0000
v  -34.0000 40.0000 20.0000
v  -14.0000 40.0000 20.0000
v  -34.0000 40.0000 -0.0000
v  -14.0000 40.0000 -0.0000
v  50.0000 85.0000 20.0000
v  40.0000 85.0000 20.0000
v  50.0000 85.0000 0.0000
v  40.0000 85.0000 0.0000
v  50.0000 120.0000 20.0000
v  40.0000 120.0000 20.0000
v  50.0000 120.0000 0.0000
v  40.0000 120.0000 0.0000
v  34.0000 5.0000 20.0000
v  14.0000 5.0000 20.0000
v  34.0000 5.0000 -0.0000
v  14.0000 5.0000 -0.0000
v  34.0000 40.0000 20.0000
v  14.0000 40.0000 20.0000
v  34.0000 40.0000 -0.0000
v  14.0000 40.0000 -0.0000
# 40 vertices

vn 0.0000 -1.0000 -0.0000
vn 0.0000 -1.0000 -0.0000
vn 0.0000 -1.0000 -0.0000
vn 0.0000 -1.0000 -0.0000
vn 0.0000 1.0000 -0.0000
vn 0.0000 1.0000 -0.0000
vn 0.0000 1.0000 -0.0000
vn 0.0000 1.0000 -0.0000
vn 0.0000 0.0000 1.0000
vn 0.0000 0.0000 1.0000
vn 0.0000 0.0000 1.0000
vn 0.0000 0.0000 1.0000
vn 1.0000 0.0000 -0.0000
vn 1.0000 0.0000 -0.0000
vn 1.0000 0.0000 -0.0000
vn 1.0000 0.0000 -0.0000
vn 0.0000 0.0000 -1.0000
vn 0.0000 0.0000 -1.0000
vn 0.0000 0.0000 -1.0000
vn 0.0000 0.0000 -1.0000
vn -1.0000 0.0000 -0.0000
vn -1.0000 0.0000 -0.0000
vn -1.0000 0.0000 -0.0000
vn -1.0000 0.0000 -0.0000
vn 0.0000 -1.0000 -0.0000
vn 0.0000 -1.0000 -0.0000
vn 0.0000 -1.0000 -0.0000
vn 0.0000 -1.0000 -0.0000
vn 0.0000 1.0000 -0.0000
vn 0.0000 1.0000 -0.0000
vn 0.0000 1.0000 -0.0000
vn 0.0000 1.0000 -0.0000
vn 0.0000 0.0000 1.0000
vn 0.0000 0.0000 1.0000
vn 0.0000 0.0000 1.0000
vn 0.0000 0.0000 1.0000
vn 1.0000 0.0000 -0.0000
vn 1.0000 0.0000 -0.0000
vn 1.0000 0.0000 -0.0000
vn 1.0000 0.0000 -0.0000
vn 0.0000 0.0000 -1.0000
vn 0.0000 0.0000 -1.0000
vn 0.0000 0.0000 -1.0000
vn 0.0000 0.0000 -1.0000
vn -1.0000 0.0000 -0.0000
vn -1.0000 0.0000 -0.0000
vn -1.0000 0.0000 -0.0000
vn -1.0000 0.0000 -0.0000
vn 0.0000 -1.0000 -0.0000
vn 0.0000 -1.0000 -0.0000
vn 0.0000 -1.0000 -0.0000
vn 0.0000 -1.0000 -0.0000
vn 0.0000 1.0000 -0.0000
vn 0.0000 1.0000 -0.0000
vn 0.0000 1.0000 -0.0000
vn 0.0000 1.0000 -0.0000
vn 0.0000 0.0000 1.0000
vn 0.0000 0.0000 1.0000
vn 0.0000 0.0000 1.0000
vn 0.0000 0.0000 1.0000
vn 1.0000 0.0000 -0.0000
vn 1.0000 0.0000 -0.0000
vn 1.0000 0.0000 -0.0000
vn 1.0000 0.0000 -0.0000
vn 0.0000 0.0000 -1.0000
vn 0.0000 0.0000 -1.0000
vn 0.0000 0.0000 -1.0000
vn 0.0000 0.0000 -1.0000
vn -1.0000 0.0000 -0.0000
vn -1.0000 0.0000 -0.0000
vn -1.0000 0.0000 -0.0000
vn -1.0000 0.0000 -0.0000
vn 0.0000 -1.0000 -0.0000
vn 0.0000 -1.0000 -0.0000
vn 0.0000 -1.0000 -0.0000
vn 0.0000 -1.0000 -0.0000
vn 0.0000 1.0000 -0.0000
vn 0.0000 1.0000 -0.0000
vn 0.0000 1.0000 -0.0000
vn 0.0000 1.0000 -0.0000
vn 0.0000 0.0000 1.0000
vn 0.0000 0.0000 1.0000
vn 0.0000 0.0000 1.0000
vn 0.0000 0.0000 1.0000
vn -1.0000 0.0000 -0.0000
vn -1.0000 0.0000 -0.0000
vn -1.0000 0.0000 -0.0000
vn -1.0000 0.0000 -0.0000
vn 0.0000 0.0000 -1.0000
vn 0.0000 0.0000 -1.0000
vn 0.0000 0.0000 -1.0000
vn 0.0000 0.0000 -1.0000
vn 1.0000 0.0000 -0.0000
vn 1.0000 0.0000 -0.0000
vn 1.0000 0.0000 -0.0000
vn 1.0000 0.0000 -0.0000
vn 0.0000 -1.0000 -0.0000
vn 0.0000 -1.0000 -0.0000
vn 0.0000 -1.0000 -0.0000
vn 0.0000 -1.0000 -0.0000
vn 0.0000 1.0000 -0.0000
vn 0.0000 1.0000 -0.0000
vn 0.0000 1.0000 -0.0000
vn 0.0000 1.0000 -0.0000
vn 0.0000 0.0000 1.0000
vn 0.0000 0.0000 1.0000
vn 0.0000 0.0000 1.0000
vn 0.0000 0.0000 1.0000
vn -1.0000 0.0000 -0.0000
vn -1.0000 0.0000 -0.0000
vn -1.0000 0.0000 -0.0000
vn -1.0000 0.0000 -0.0000
vn 0.0000 0.0000 -1.0000
vn 0.0000 0.0000 -1.0000
vn 0.0000 0.0000 -1.0000
vn 0.0000 0.0000 -1.0000
vn 1.0000 0.0000 -0.0000
vn 1.0000 0.0000 -0.0000
vn 1.0000 0.0000 -0.0000
vn 1.0000 0.0000 -0.0000
# 120 vertex normals

vt 0.5274 0.8002 0.0000
vt 0.7640 0.8002 0.0000
vt 0.5274 0.5636 0.0000
vt 0.7640 0.5636 0.0000
vt 0.5274 0.5636 0.0000
vt 0.7640 0.5636 0.0000
vt 0.5274 0.8002 0.0000
vt 0.7640 0.8002 0.0000
vt 0.5275 0.0304 0.0000
vt 0.7642 0.0304 0.0000
vt 0.5275 0.5038 0.0000
vt 0.7642 0.5038 0.0000
vt 0.0242 0.8002 0.0000
vt 0.0242 0.5636 0.0000
vt 0.4974 0.8002 0.0000
vt 0.4974 0.5636 0.0000
vt 0.0242 0.5337 0.0000
vt 0.0242 0.2971 0.0000
vt 0.4974 0.5337 0.0000
vt 0.4974 0.2971 0.0000
vt 0.0242 0.2670 0.0000
vt 0.0242 0.0304 0.0000
vt 0.4974 0.2670 0.0000
vt 0.4974 0.0304 0.0000
vt 0.0341 0.8917 0.0000
vt 0.0341 0.8324 0.0000
vt 0.0637 0.8324 0.0000
vt 0.0637 0.8917 0.0000
vt 0.1818 0.8324 0.0000
vt 0.2113 0.8324 0.0000
vt 0.2113 0.8917 0.0000
vt 0.1818 0.8917 0.0000
vt 0.0697 0.8917 0.0000
vt 0.0697 0.8621 0.0000
vt 0.1733 0.8621 0.0000
vt 0.1733 0.8917 0.0000
vt 0.0697 0.8917 0.0000
vt 0.0697 0.8324 0.0000
vt 0.1733 0.8324 0.0000
vt 0.1733 0.8917 0.0000
vt 0.0697 0.8917 0.0000
vt 0.0697 0.8621 0.0000
vt 0.1733 0.8621 0.0000
vt 0.1733 0.8917 0.0000
vt 0.0697 0.8917 0.0000
vt 0.0697 0.8324 0.0000
vt 0.1733 0.8324 0.0000
vt 0.1733 0.8917 0.0000
vt 0.1447 0.9659 0.0000
vt 0.1447 0.9068 0.0000
vt 0.2039 0.9068 0.0000
vt 0.2039 0.9659 0.0000
vt 0.1447 0.9068 0.0000
vt 0.2039 0.9068 0.0000
vt 0.2039 0.9659 0.0000
vt 0.1447 0.9659 0.0000
vt 0.0341 0.9659 0.0000
vt 0.0341 0.9068 0.0000
vt 0.1376 0.9068 0.0000
vt 0.1376 0.9659 0.0000
vt 0.0341 0.9659 0.0000
vt 0.0341 0.9068 0.0000
vt 0.1376 0.9068 0.0000
vt 0.1376 0.9659 0.0000
vt 0.0341 0.9659 0.0000
vt 0.0341 0.9068 0.0000
vt 0.1376 0.9068 0.0000
vt 0.1376 0.9659 0.0000
vt 0.0341 0.9659 0.0000
vt 0.0341 0.9068 0.0000
vt 0.1376 0.9068 0.0000
vt 0.1376 0.9659 0.0000
vt 0.0341 0.8917 0.0000
vt 0.0341 0.8324 0.0000
vt 0.0637 0.8324 0.0000
vt 0.0637 0.8917 0.0000
vt 0.1818 0.8324 0.0000
vt 0.2113 0.8324 0.0000
vt 0.2113 0.8917 0.0000
vt 0.1818 0.8917 0.0000
vt 0.0697 0.8917 0.0000
vt 0.0697 0.8621 0.0000
vt 0.1733 0.8621 0.0000
vt 0.1733 0.8917 0.0000
vt 0.0697 0.8917 0.0000
vt 0.0697 0.8324 0.0000
vt 0.1733 0.8324 0.0000
vt 0.1733 0.8917 0.0000
vt 0.0697 0.8917 0.0000
vt 0.0697 0.8621 0.0000
vt 0.1733 0.8621 0.0000
vt 0.1733 0.8917 0.0000
vt 0.0697 0.8917 0.0000
vt 0.0697 0.8324 0.0000
vt 0.1733 0.8324 0.0000
vt 0.1733 0.8917 0.0000
vt 0.1447 0.9659 0.0000
vt 0.1447 0.9068 0.0000
vt 0.2039 0.9068 0.0000
vt 0.2039 0.9659 0.0000
vt 0.1447 0.9068 0.0000
vt 0.2039 0.9068 0.0000
vt 0.2039 0.9659 0.0000
vt 0.1447 0.9659 0.0000
vt 0.0341 0.9659 0.0000
vt 0.0341 0.9068 0.0000
vt 0.1376 0.9068 0.0000
vt 0.1376 0.9659 0.0000
vt 0.0341 0.9659 0.0000
vt 0.0341 0.9068 0.0000
vt 0.1376 0.9068 0.0000
vt 0.1376 0.9659 0.0000
vt 0.0341 0.9659 0.0000
vt 0.0341 0.9068 0.0000
vt 0.1376 0.9068 0.0000
vt 0.1376 0.9659 0.0000
vt 0.0341 0.9659 0.0000
vt 0.0341 0.9068 0.0000
vt 0.1376 0.9068 0.0000
vt 0.1376 0.9659 0.0000
# 120 texture coords

g Box014
s 2
f 2/2/1 1/1/2 3/3/3 4/4/4 
s 4
f 7/7/5 5/5/6 6/6/7 8/8/8 
s 8
f 5/11/9 1/9/10 2/10/11 6/12/12 
s 16
f 6/15/13 2/13/14 4/14/15 8/16/16 
s 32
f 4/17/17 3/18/18 7/20/19 8/19/20 
s 64
f 3/21/21 1/22/22 5/24/23 7/23/24 
s 2
f 9/25/25 11/26/26 12/27/27 10/28/28 
s 4
f 13/29/29 14/30/30 16/31/31 15/32/32 
s 8
f 9/33/33 10/34/34 14/35/35 13/36/36 
s 16
f 10/37/37 12/38/38 16/39/39 14/40/40 
s 32
f 12/41/41 11/42/42 15/43/43 16/44/44 
s 64
f 11/45/45 9/46/46 13/47/47 15/48/48 
s 2
f 17/49/49 19/50/50 20/51/51 18/52/52 
s 4
f 21/53/53 22/54/54 24/55/55 23/56/56 
s 8
f 17/57/57 18/58/58 22/59/59 21/60/60 
s 16
f 18/61/61 20/62/62 24/63/63 22/64/64 
s 32
f 20/65/65 19/66/66 23/67/67 24/68/68 
s 64
f 19/69/69 17/70/70 21/71/71 23/72/72 
s 2
f 25/73/73 26/76/74 28/75/75 27/74/76 
s 4
f 29/77/77 31/80/78 32/79/79 30/78/80 
s 8
f 25/81/81 29/84/82 30/83/83 26/82/84 
s 16
f 26/85/85 30/88/86 32/87/87 28/86/88 
s 32
f 28/89/89 32/92/90 31/91/91 27/90/92 
s 64
f 27/93/93 31/96/94 29/95/95 25/94/96 
s 2
f 33/97/97 34/100/98 36/99/99 35/98/100 
s 4
f 37/101/101 39/104/102 40/103/103 38/102/104 
s 8
f 33/105/105 37/108/106 38/107/107 34/106/108 
s 16
f 34/109/109 38/112/110 40/111/111 36/110/112 
s 32
f 36/113/113 40/116/114 39/115/115 35/114/116 
s 64
f 35/117/117 39/120/118 37/119/119 33/118/120 
# 30 polygons

