# 3ds Max Wavefront OBJ Exporter v0.97b - (c)2007 guruware
# File Created: 11.08.2017 16:01:15

#
# object Box022
#

v  -40.0000 40.0000 50.0000
v  40.0000 40.0000 50.0000
v  -40.0000 40.0000 -30.0000
v  40.0000 40.0000 -30.0000
v  -40.0000 200.0000 50.0000
v  40.0000 200.0000 50.0000
v  -40.0000 200.0000 -30.0000
v  40.0000 200.0000 -30.0000
v  -50.0000 85.0000 20.0000
v  -40.0000 85.0000 20.0000
v  -50.0000 85.0000 0.0000
v  -40.0000 85.0000 0.0000
v  -50.0000 120.0000 20.0000
v  -40.0000 120.0000 20.0000
v  -50.0000 120.0000 0.0000
v  -40.0000 120.0000 0.0000
v  -34.0000 5.0000 20.0000
v  -14.0000 5.0000 20.0000
v  -34.0000 5.0000 -0.0000
v  -14.0000 5.0000 -0.0000
v  -34.0000 40.0000 20.0000
v  -14.0000 40.0000 20.0000
v  -34.0000 40.0000 -0.0000
v  -14.0000 40.0000 -0.0000
v  50.0000 85.0000 20.0000
v  40.0000 85.0000 20.0000
v  50.0000 85.0000 0.0000
v  40.0000 85.0000 0.0000
v  50.0000 120.0000 20.0000
v  40.0000 120.0000 20.0000
v  50.0000 120.0000 0.0000
v  40.0000 120.0000 0.0000
v  34.0000 5.0000 20.0000
v  14.0000 5.0000 20.0000
v  34.0000 5.0000 -0.0000
v  14.0000 5.0000 -0.0000
v  34.0000 40.0000 20.0000
v  14.0000 40.0000 20.0000
v  34.0000 40.0000 -0.0000
v  14.0000 40.0000 -0.0000
v  -40.0000 135.0000 50.0000
v  40.0000 135.0000 50.0000
v  40.0000 135.0000 -30.0000
v  -40.0000 135.0000 -30.0000
v  -40.0000 120.8475 50.0000
v  40.0000 120.8475 50.0000
v  40.0000 120.8475 -45.0000
v  -40.0000 120.8475 -45.0000
v  -40.0000 120.8475 50.0000
v  40.0000 120.8475 50.0000
v  40.0000 120.8475 -30.0000
v  -40.0000 120.8475 -30.0000
v  40.0000 120.8475 -30.0000
v  -40.0000 120.8475 -30.0000
v  -47.5000 85.0000 -110.0000
v  -40.0000 85.0000 -110.0000
v  -47.5000 92.5000 -110.0000
v  -40.0000 92.5000 -110.0000
v  -47.5000 85.0000 130.0000
v  -40.0000 85.0000 130.0000
v  -47.5000 92.5000 130.0000
v  -40.0000 92.5000 130.0000
v  -43.7500 88.7500 153.3215
v  -40.0000 85.0000 0.0000
v  -47.5000 85.0000 0.0000
v  -40.0000 92.5000 0.0000
v  -47.5000 92.5000 0.0000
v  -40.0000 85.0000 20.0000
v  -47.5000 85.0000 20.0000
v  -40.0000 92.5000 20.0000
v  -47.5000 92.5000 20.0000
v  -47.5000 108.5000 130.0000
v  -40.0000 108.5000 130.0000
v  -47.5000 116.0000 130.0000
v  -40.0000 116.0000 130.0000
v  -43.7500 112.2500 153.3215
v  -40.0000 108.5000 98.0000
v  -47.5000 108.5000 98.0000
v  -40.0000 116.0000 98.0000
v  -47.5000 116.0000 98.0000
v  -40.0000 108.5000 90.5000
v  -47.5000 108.5000 90.5000
v  -47.5000 116.0000 90.5000
v  -40.0000 116.0000 90.5000
v  -40.0000 92.5000 98.0000
v  -47.5000 92.5000 98.0000
v  -47.5000 92.5000 90.5000
v  -40.0000 92.5000 90.5000
v  -47.5000 69.0000 130.0000
v  -40.0000 69.0000 130.0000
v  -47.5000 61.5000 130.0000
v  -40.0000 61.5000 130.0000
v  -43.7500 65.2500 153.3215
v  -40.0000 69.0000 98.0000
v  -47.5000 69.0000 98.0000
v  -40.0000 61.5000 98.0000
v  -47.5000 61.5000 98.0000
v  -40.0000 69.0000 90.5000
v  -47.5000 69.0000 90.5000
v  -47.5000 61.5000 90.5000
v  -40.0000 61.5000 90.5000
v  -40.0000 85.0000 98.0000
v  -47.5000 85.0000 98.0000
v  -47.5000 85.0000 90.5000
v  -40.0000 85.0000 90.5000
v  -40.0000 200.0001 50.0000
v  -24.0000 200.0001 50.0000
v  -8.0000 200.0001 50.0000
v  8.0000 200.0001 50.0000
v  24.0000 200.0001 50.0000
v  40.0000 200.0001 50.0000
v  -32.0000 216.0001 50.0000
v  -16.0000 216.0001 50.0000
v  0.0000 216.0001 50.0000
v  16.0000 216.0001 50.0000
v  32.0000 216.0001 50.0000
v  -24.0000 200.0001 50.0000
v  -8.0000 200.0001 50.0000
v  8.0000 200.0001 50.0000
v  24.0000 200.0001 50.0000
# 120 vertices

vn 0.0000 -1.0000 -0.0000
vn 0.0000 -1.0000 -0.0000
vn 0.0000 -1.0000 -0.0000
vn 0.0000 -1.0000 -0.0000
vn 0.0000 1.0000 -0.0000
vn 0.0000 1.0000 -0.0000
vn 0.0000 1.0000 -0.0000
vn 0.0000 1.0000 -0.0000
vn 0.0000 0.0000 1.0000
vn 0.0000 0.0000 1.0000
vn 0.0000 0.0000 1.0000
vn 0.0000 0.0000 1.0000
vn 1.0000 0.0000 -0.0000
vn 1.0000 0.0000 -0.0000
vn 1.0000 0.0000 -0.0000
vn 1.0000 0.0000 -0.0000
vn 0.0000 0.0000 -1.0000
vn 0.0000 0.0000 -1.0000
vn 0.0000 0.0000 -1.0000
vn 0.0000 0.0000 -1.0000
vn -1.0000 0.0000 -0.0000
vn -1.0000 0.0000 -0.0000
vn -1.0000 0.0000 -0.0000
vn -1.0000 0.0000 -0.0000
vn 0.0000 -1.0000 -0.0000
vn 0.0000 -1.0000 -0.0000
vn 0.0000 -1.0000 -0.0000
vn 0.0000 -1.0000 -0.0000
vn 0.0000 1.0000 -0.0000
vn 0.0000 1.0000 -0.0000
vn 0.0000 1.0000 -0.0000
vn 0.0000 1.0000 -0.0000
vn 0.0000 0.0000 1.0000
vn 0.0000 0.0000 1.0000
vn 0.0000 0.0000 1.0000
vn 0.0000 0.0000 1.0000
vn 1.0000 0.0000 -0.0000
vn 1.0000 0.0000 -0.0000
vn 1.0000 0.0000 -0.0000
vn 1.0000 0.0000 -0.0000
vn 0.0000 0.0000 -1.0000
vn 0.0000 0.0000 -1.0000
vn 0.0000 0.0000 -1.0000
vn 0.0000 0.0000 -1.0000
vn -1.0000 0.0000 -0.0000
vn -1.0000 0.0000 -0.0000
vn -1.0000 0.0000 -0.0000
vn -1.0000 0.0000 -0.0000
vn 0.0000 -1.0000 -0.0000
vn 0.0000 -1.0000 -0.0000
vn 0.0000 -1.0000 -0.0000
vn 0.0000 -1.0000 -0.0000
vn 0.0000 1.0000 -0.0000
vn 0.0000 1.0000 -0.0000
vn 0.0000 1.0000 -0.0000
vn 0.0000 1.0000 -0.0000
vn 0.0000 0.0000 1.0000
vn 0.0000 0.0000 1.0000
vn 0.0000 0.0000 1.0000
vn 0.0000 0.0000 1.0000
vn 1.0000 0.0000 -0.0000
vn 1.0000 0.0000 -0.0000
vn 1.0000 0.0000 -0.0000
vn 1.0000 0.0000 -0.0000
vn 0.0000 0.0000 -1.0000
vn 0.0000 0.0000 -1.0000
vn 0.0000 0.0000 -1.0000
vn 0.0000 0.0000 -1.0000
vn -1.0000 0.0000 -0.0000
vn -1.0000 0.0000 -0.0000
vn -1.0000 0.0000 -0.0000
vn -1.0000 0.0000 -0.0000
vn 0.0000 -1.0000 -0.0000
vn 0.0000 -1.0000 -0.0000
vn 0.0000 -1.0000 -0.0000
vn 0.0000 -1.0000 -0.0000
vn 0.0000 1.0000 -0.0000
vn 0.0000 1.0000 -0.0000
vn 0.0000 1.0000 -0.0000
vn 0.0000 1.0000 -0.0000
vn 0.0000 0.0000 1.0000
vn 0.0000 0.0000 1.0000
vn 0.0000 0.0000 1.0000
vn 0.0000 0.0000 1.0000
vn -1.0000 0.0000 -0.0000
vn -1.0000 0.0000 -0.0000
vn -1.0000 0.0000 -0.0000
vn -1.0000 0.0000 -0.0000
vn 0.0000 0.0000 -1.0000
vn 0.0000 0.0000 -1.0000
vn 0.0000 0.0000 -1.0000
vn 0.0000 0.0000 -1.0000
vn 1.0000 0.0000 -0.0000
vn 1.0000 0.0000 -0.0000
vn 1.0000 0.0000 -0.0000
vn 1.0000 0.0000 -0.0000
vn 0.0000 -1.0000 -0.0000
vn 0.0000 -1.0000 -0.0000
vn 0.0000 -1.0000 -0.0000
vn 0.0000 -1.0000 -0.0000
vn 0.0000 1.0000 -0.0000
vn 0.0000 1.0000 -0.0000
vn 0.0000 1.0000 -0.0000
vn 0.0000 1.0000 -0.0000
vn 0.0000 0.0000 1.0000
vn 0.0000 0.0000 1.0000
vn 0.0000 0.0000 1.0000
vn 0.0000 0.0000 1.0000
vn -1.0000 0.0000 -0.0000
vn -1.0000 0.0000 -0.0000
vn -1.0000 0.0000 -0.0000
vn -1.0000 0.0000 -0.0000
vn 0.0000 0.0000 -1.0000
vn 0.0000 0.0000 -1.0000
vn 0.0000 0.0000 -1.0000
vn 0.0000 0.0000 -1.0000
vn 1.0000 0.0000 -0.0000
vn 1.0000 0.0000 -0.0000
vn 1.0000 0.0000 -0.0000
vn 1.0000 0.0000 -0.0000
vn 0.0000 0.0000 1.0000
vn 0.0000 0.0000 1.0000
vn 0.0000 0.0000 1.0000
vn 0.0000 0.0000 1.0000
vn 1.0000 0.0000 -0.0000
vn 1.0000 0.0000 -0.0000
vn 1.0000 0.0000 -0.0000
vn 0.0000 0.7274 -0.6863
vn 0.0000 0.7274 -0.6863
vn 0.0000 0.7274 -0.6863
vn 0.0000 0.7274 -0.6863
vn -1.0000 0.0000 -0.0000
vn -1.0000 0.0000 -0.0000
vn -1.0000 0.0000 -0.0000
vn -1.0000 0.0000 -0.0000
vn 0.0000 0.0000 1.0000
vn 0.0000 0.0000 1.0000
vn 0.0000 0.0000 1.0000
vn 0.0000 0.0000 1.0000
vn 1.0000 0.0000 -0.0000
vn 1.0000 0.0000 -0.0000
vn 1.0000 0.0000 -0.0000
vn 1.0000 0.0000 -0.0000
vn 0.0000 0.0000 -1.0000
vn 0.0000 0.0000 -1.0000
vn 0.0000 0.0000 -1.0000
vn 0.0000 0.0000 -1.0000
vn -1.0000 0.0000 -0.0000
vn -1.0000 0.0000 -0.0000
vn -1.0000 0.0000 -0.0000
vn -1.0000 0.0000 -0.0000
vn 1.0000 0.0000 -0.0000
vn 1.0000 0.0000 -0.0000
vn 1.0000 0.0000 -0.0000
vn 1.0000 0.0000 -0.0000
vn 1.0000 0.0000 -0.0000
vn 1.0000 0.0000 -0.0000
vn 1.0000 0.0000 -0.0000
vn 1.0000 0.0000 -0.0000
vn 1.0000 0.0000 -0.0000
vn 1.0000 0.0000 -0.0000
vn 1.0000 0.0000 -0.0000
vn 0.0000 -1.0000 -0.0000
vn 0.0000 -1.0000 -0.0000
vn 0.0000 -1.0000 -0.0000
vn 0.0000 -1.0000 -0.0000
vn 1.0000 0.0000 -0.0000
vn 1.0000 0.0000 -0.0000
vn 1.0000 0.0000 -0.0000
vn 1.0000 0.0000 -0.0000
vn 1.0000 0.0000 -0.0000
vn 1.0000 0.0000 -0.0000
vn 1.0000 0.0000 -0.0000
vn 1.0000 0.0000 -0.0000
vn 1.0000 0.0000 -0.0000
vn 1.0000 0.0000 -0.0000
vn 1.0000 0.0000 -0.0000
vn -1.0000 0.0000 -0.0000
vn -1.0000 0.0000 -0.0000
vn -1.0000 0.0000 -0.0000
vn 0.0000 0.0000 -1.0000
vn 0.0000 0.0000 -1.0000
vn 0.0000 0.0000 -1.0000
vn 0.0000 0.0000 -1.0000
vn 0.0000 -1.0000 -0.0000
vn 0.0000 -1.0000 -0.0000
vn 0.0000 -1.0000 -0.0000
vn 0.0000 -1.0000 -0.0000
vn 1.0000 0.0000 -0.0000
vn 1.0000 0.0000 -0.0000
vn 1.0000 0.0000 -0.0000
vn 1.0000 0.0000 -0.0000
vn 0.0000 1.0000 0.0000
vn 0.0000 1.0000 0.0000
vn 0.0000 1.0000 0.0000
vn 0.0000 1.0000 0.0000
vn -1.0000 0.0000 -0.0000
vn -1.0000 0.0000 -0.0000
vn -1.0000 0.0000 -0.0000
vn -1.0000 0.0000 -0.0000
vn 0.0000 -0.9873 0.1588
vn 0.0000 -0.9873 0.1588
vn 0.0000 -0.9873 0.1588
vn 0.9873 0.0000 0.1588
vn 0.9873 0.0000 0.1588
vn 0.9873 0.0000 0.1588
vn 0.0000 0.9873 0.1588
vn 0.0000 0.9873 0.1588
vn 0.0000 0.9873 0.1588
vn -0.9873 0.0000 0.1588
vn -0.9873 0.0000 0.1588
vn -0.9873 0.0000 0.1588
vn 0.0000 -1.0000 -0.0000
vn 0.0000 -1.0000 -0.0000
vn 0.0000 -1.0000 -0.0000
vn 0.0000 -1.0000 -0.0000
vn 1.0000 0.0000 -0.0000
vn 1.0000 0.0000 -0.0000
vn 1.0000 0.0000 -0.0000
vn 1.0000 0.0000 -0.0000
vn 0.0000 1.0000 0.0000
vn 0.0000 1.0000 0.0000
vn 0.0000 1.0000 0.0000
vn 0.0000 1.0000 0.0000
vn -1.0000 0.0000 -0.0000
vn -1.0000 0.0000 -0.0000
vn -1.0000 0.0000 -0.0000
vn -1.0000 0.0000 -0.0000
vn 0.0000 -0.9873 0.1588
vn 0.0000 -0.9873 0.1588
vn 0.0000 -0.9873 0.1588
vn 0.9873 0.0000 0.1588
vn 0.9873 0.0000 0.1588
vn 0.9873 0.0000 0.1588
vn 0.0000 0.9873 0.1588
vn 0.0000 0.9873 0.1588
vn 0.0000 0.9873 0.1588
vn -0.9873 0.0000 0.1588
vn -0.9873 0.0000 0.1588
vn -0.9873 0.0000 0.1588
vn 0.0000 -1.0000 -0.0000
vn 0.0000 -1.0000 -0.0000
vn 0.0000 -1.0000 -0.0000
vn 0.0000 -1.0000 -0.0000
vn 1.0000 0.0000 -0.0000
vn 1.0000 0.0000 -0.0000
vn 1.0000 0.0000 -0.0000
vn 1.0000 0.0000 -0.0000
vn 0.0000 1.0000 0.0000
vn 0.0000 1.0000 0.0000
vn 0.0000 1.0000 0.0000
vn 0.0000 1.0000 0.0000
vn -1.0000 0.0000 -0.0000
vn -1.0000 0.0000 -0.0000
vn -1.0000 0.0000 -0.0000
vn -1.0000 0.0000 -0.0000
vn 0.0000 0.0000 -1.0000
vn 0.0000 0.0000 -1.0000
vn 0.0000 0.0000 -1.0000
vn 0.0000 0.0000 -1.0000
vn -1.0000 0.0000 -0.0000
vn -1.0000 0.0000 -0.0000
vn -1.0000 0.0000 -0.0000
vn -1.0000 0.0000 -0.0000
vn 0.0000 1.0000 -0.0000
vn 0.0000 1.0000 -0.0000
vn 0.0000 1.0000 -0.0000
vn 0.0000 1.0000 -0.0000
vn 1.0000 0.0000 -0.0000
vn 1.0000 0.0000 -0.0000
vn 1.0000 0.0000 -0.0000
vn 1.0000 0.0000 -0.0000
vn 0.0000 0.0000 1.0000
vn 0.0000 0.0000 1.0000
vn 0.0000 0.0000 1.0000
vn 0.0000 0.0000 1.0000
vn -1.0000 0.0000 -0.0000
vn -1.0000 0.0000 -0.0000
vn -1.0000 0.0000 -0.0000
vn -1.0000 0.0000 -0.0000
vn 0.0000 0.0000 -1.0000
vn 0.0000 0.0000 -1.0000
vn 0.0000 0.0000 -1.0000
vn 0.0000 0.0000 -1.0000
vn 1.0000 0.0000 -0.0000
vn 1.0000 0.0000 -0.0000
vn 1.0000 0.0000 -0.0000
vn 1.0000 0.0000 -0.0000
vn 0.0000 0.9873 0.1588
vn 0.0000 0.9873 0.1588
vn 0.0000 0.9873 0.1588
vn 0.9873 0.0000 0.1588
vn 0.9873 0.0000 0.1588
vn 0.9873 0.0000 0.1588
vn 0.0000 -0.9873 0.1588
vn 0.0000 -0.9873 0.1588
vn 0.0000 -0.9873 0.1588
vn -0.9873 0.0000 0.1588
vn -0.9873 0.0000 0.1588
vn -0.9873 0.0000 0.1588
vn 0.0000 1.0000 -0.0000
vn 0.0000 1.0000 -0.0000
vn 0.0000 1.0000 -0.0000
vn 0.0000 1.0000 -0.0000
vn 1.0000 0.0000 -0.0000
vn 1.0000 0.0000 -0.0000
vn 1.0000 0.0000 -0.0000
vn 1.0000 0.0000 -0.0000
vn 0.0000 -1.0000 0.0000
vn 0.0000 -1.0000 0.0000
vn 0.0000 -1.0000 0.0000
vn 0.0000 -1.0000 0.0000
vn -1.0000 0.0000 -0.0000
vn -1.0000 0.0000 -0.0000
vn -1.0000 0.0000 -0.0000
vn -1.0000 0.0000 -0.0000
vn 0.0000 0.0000 -1.0000
vn 0.0000 0.0000 -1.0000
vn 0.0000 0.0000 -1.0000
vn 0.0000 0.0000 -1.0000
vn -1.0000 0.0000 -0.0000
vn -1.0000 0.0000 -0.0000
vn -1.0000 0.0000 -0.0000
vn -1.0000 0.0000 -0.0000
vn 0.0000 -1.0000 -0.0000
vn 0.0000 -1.0000 -0.0000
vn 0.0000 -1.0000 -0.0000
vn 0.0000 -1.0000 -0.0000
vn 1.0000 0.0000 -0.0000
vn 1.0000 0.0000 -0.0000
vn 1.0000 0.0000 -0.0000
vn 1.0000 0.0000 -0.0000
vn 0.0000 0.0000 1.0000
vn 0.0000 0.0000 1.0000
vn 0.0000 0.0000 1.0000
vn 0.0000 0.0000 1.0000
vn -1.0000 0.0000 -0.0000
vn -1.0000 0.0000 -0.0000
vn -1.0000 0.0000 -0.0000
vn -1.0000 0.0000 -0.0000
vn 0.0000 0.0000 -1.0000
vn 0.0000 0.0000 -1.0000
vn 0.0000 0.0000 -1.0000
vn 0.0000 0.0000 -1.0000
vn 1.0000 0.0000 -0.0000
vn 1.0000 0.0000 -0.0000
vn 1.0000 0.0000 -0.0000
vn 1.0000 0.0000 -0.0000
vn 0.0000 0.0000 1.0000
vn 0.0000 0.0000 1.0000
vn 0.0000 0.0000 1.0000
vn 0.0000 0.0000 1.0000
vn 0.0000 0.0000 1.0000
vn 0.0000 0.0000 1.0000
vn 0.0000 0.0000 1.0000
vn 0.0000 0.0000 1.0000
vn 0.0000 0.0000 1.0000
vn 0.0000 0.0000 1.0000
vn 0.0000 0.0000 1.0000
vn 0.0000 0.0000 1.0000
vn 0.0000 0.0000 1.0000
vn 0.0000 0.0000 1.0000
vn 0.0000 0.0000 1.0000
# 363 vertex normals

vt 0.5274 0.8002 0.0000
vt 0.7640 0.8002 0.0000
vt 0.5274 0.5636 0.0000
vt 0.7640 0.5636 0.0000
vt 0.5274 0.5636 0.0000
vt 0.7640 0.5636 0.0000
vt 0.5274 0.8002 0.0000
vt 0.7640 0.8002 0.0000
vt 0.5275 0.0304 0.0000
vt 0.7642 0.0304 0.0000
vt 0.5275 0.5038 0.0000
vt 0.7642 0.5038 0.0000
vt 0.0242 0.8002 0.0000
vt 0.0242 0.5636 0.0000
vt 0.4974 0.8002 0.0000
vt 0.4974 0.5636 0.0000
vt 0.0242 0.5337 0.0000
vt 0.0242 0.2971 0.0000
vt 0.4974 0.5337 0.0000
vt 0.4974 0.2971 0.0000
vt 0.0242 0.2670 0.0000
vt 0.0242 0.0304 0.0000
vt 0.4974 0.2670 0.0000
vt 0.4974 0.0304 0.0000
vt 0.0341 0.8917 0.0000
vt 0.0341 0.8324 0.0000
vt 0.0637 0.8324 0.0000
vt 0.0637 0.8917 0.0000
vt 0.1818 0.8324 0.0000
vt 0.2113 0.8324 0.0000
vt 0.2113 0.8917 0.0000
vt 0.1818 0.8917 0.0000
vt 0.0697 0.8917 0.0000
vt 0.0697 0.8621 0.0000
vt 0.1733 0.8621 0.0000
vt 0.1733 0.8917 0.0000
vt 0.0697 0.8917 0.0000
vt 0.0697 0.8324 0.0000
vt 0.1733 0.8324 0.0000
vt 0.1733 0.8917 0.0000
vt 0.0697 0.8917 0.0000
vt 0.0697 0.8621 0.0000
vt 0.1733 0.8621 0.0000
vt 0.1733 0.8917 0.0000
vt 0.0697 0.8917 0.0000
vt 0.0697 0.8324 0.0000
vt 0.1733 0.8324 0.0000
vt 0.1733 0.8917 0.0000
vt 0.1447 0.9659 0.0000
vt 0.1447 0.9068 0.0000
vt 0.2039 0.9068 0.0000
vt 0.2039 0.9659 0.0000
vt 0.1447 0.9068 0.0000
vt 0.2039 0.9068 0.0000
vt 0.2039 0.9659 0.0000
vt 0.1447 0.9659 0.0000
vt 0.0341 0.9659 0.0000
vt 0.0341 0.9068 0.0000
vt 0.1376 0.9068 0.0000
vt 0.1376 0.9659 0.0000
vt 0.0341 0.9659 0.0000
vt 0.0341 0.9068 0.0000
vt 0.1376 0.9068 0.0000
vt 0.1376 0.9659 0.0000
vt 0.0341 0.9659 0.0000
vt 0.0341 0.9068 0.0000
vt 0.1376 0.9068 0.0000
vt 0.1376 0.9659 0.0000
vt 0.0341 0.9659 0.0000
vt 0.0341 0.9068 0.0000
vt 0.1376 0.9068 0.0000
vt 0.1376 0.9659 0.0000
vt 0.0341 0.8917 0.0000
vt 0.0341 0.8324 0.0000
vt 0.0637 0.8324 0.0000
vt 0.0637 0.8917 0.0000
vt 0.1818 0.8324 0.0000
vt 0.2113 0.8324 0.0000
vt 0.2113 0.8917 0.0000
vt 0.1818 0.8917 0.0000
vt 0.0697 0.8917 0.0000
vt 0.0697 0.8621 0.0000
vt 0.1733 0.8621 0.0000
vt 0.1733 0.8917 0.0000
vt 0.0697 0.8917 0.0000
vt 0.0697 0.8324 0.0000
vt 0.1733 0.8324 0.0000
vt 0.1733 0.8917 0.0000
vt 0.0697 0.8917 0.0000
vt 0.0697 0.8621 0.0000
vt 0.1733 0.8621 0.0000
vt 0.1733 0.8917 0.0000
vt 0.0697 0.8917 0.0000
vt 0.0697 0.8324 0.0000
vt 0.1733 0.8324 0.0000
vt 0.1733 0.8917 0.0000
vt 0.1447 0.9659 0.0000
vt 0.1447 0.9068 0.0000
vt 0.2039 0.9068 0.0000
vt 0.2039 0.9659 0.0000
vt 0.1447 0.9068 0.0000
vt 0.2039 0.9068 0.0000
vt 0.2039 0.9659 0.0000
vt 0.1447 0.9659 0.0000
vt 0.0341 0.9659 0.0000
vt 0.0341 0.9068 0.0000
vt 0.1376 0.9068 0.0000
vt 0.1376 0.9659 0.0000
vt 0.0341 0.9659 0.0000
vt 0.0341 0.9068 0.0000
vt 0.1376 0.9068 0.0000
vt 0.1376 0.9659 0.0000
vt 0.0341 0.9659 0.0000
vt 0.0341 0.9068 0.0000
vt 0.1376 0.9068 0.0000
vt 0.1376 0.9659 0.0000
vt 0.0341 0.9659 0.0000
vt 0.0341 0.9068 0.0000
vt 0.1376 0.9068 0.0000
vt 0.1376 0.9659 0.0000
vt 0.5275 0.3115 0.0000
vt 0.3052 0.0304 0.0000
vt 0.7642 0.3115 0.0000
vt 0.3052 0.8002 0.0000
vt 0.3052 0.5636 0.0000
vt 0.3052 0.5337 0.0000
vt 0.3052 0.2971 0.0000
vt 0.3052 0.2670 0.0000
vt 0.5275 0.2696 0.0000
vt 0.2633 0.0304 0.0000
vt 0.2633 0.8002 0.0000
vt 0.7642 0.2696 0.0000
vt 0.2633 0.5337 0.0000
vt 0.2633 0.5636 0.0000
vt 0.2633 0.2670 0.0000
vt 0.2633 0.2971 0.0000
vt 0.5275 0.2696 0.0000
vt 0.2633 0.0304 0.0000
vt 0.2633 0.8002 0.0000
vt 0.7642 0.2696 0.0000
vt 0.2633 0.5337 0.0000
vt 0.2633 0.5636 0.0000
vt 0.2633 0.2670 0.0000
vt 0.2633 0.2971 0.0000
vt 0.2633 0.6009 0.0000
vt 0.2633 0.2297 0.0000
vt 0.9147 0.9886 0.0000
vt 0.9147 0.9886 0.0000
vt 0.9423 0.9886 0.0000
vt 0.9423 0.9886 0.0000
vt 0.9423 0.5840 0.0000
vt 0.9147 0.5840 0.0000
vt 0.9423 0.5840 0.0000
vt 0.9147 0.5840 0.0000
vt 0.9605 0.5840 0.0000
vt 0.9881 0.5840 0.0000
vt 0.9743 0.4951 0.0000
vt 0.9881 0.5840 0.0000
vt 0.9605 0.5840 0.0000
vt 0.9881 0.9886 0.0000
vt 0.9605 0.9886 0.0000
vt 0.9881 0.9886 0.0000
vt 0.9605 0.9886 0.0000
vt 0.9605 0.5540 0.0000
vt 0.9881 0.5540 0.0000
vt 0.9881 0.5540 0.0000
vt 0.9605 0.5540 0.0000
vt 0.9153 0.8160 0.0000
vt 0.9903 0.8160 0.0000
vt 0.9528 0.7275 0.0000
vt 0.9903 0.8160 0.0000
vt 0.9153 0.8160 0.0000
vt 0.9903 0.9376 0.0000
vt 0.9153 0.9376 0.0000
vt 0.9903 0.9376 0.0000
vt 0.9153 0.9376 0.0000
vt 0.9903 0.9660 0.0000
vt 0.9903 0.9660 0.0000
vt 0.9153 0.9660 0.0000
vt 0.9153 0.9660 0.0000
vt 0.9153 0.9376 0.0000
vt 0.9903 0.9376 0.0000
vt 0.9153 0.9660 0.0000
vt 0.9903 0.9660 0.0000
vt 0.9153 0.8160 0.0000
vt 0.9903 0.8160 0.0000
vt 0.9528 0.7275 0.0000
vt 0.9903 0.8160 0.0000
vt 0.9153 0.8160 0.0000
vt 0.9903 0.9376 0.0000
vt 0.9153 0.9376 0.0000
vt 0.9903 0.9376 0.0000
vt 0.9153 0.9376 0.0000
vt 0.9903 0.9660 0.0000
vt 0.9903 0.9660 0.0000
vt 0.9153 0.9660 0.0000
vt 0.9153 0.9660 0.0000
vt 0.9153 0.9376 0.0000
vt 0.9903 0.9376 0.0000
vt 0.9153 0.9660 0.0000
vt 0.9903 0.9660 0.0000
vt 0.9477 0.4807 0.0000
vt 0.9039 0.3930 0.0000
vt 0.9916 0.3930 0.0000
vt 0.9039 0.3930 0.0000
vt 0.9916 0.3930 0.0000
vt 0.9477 0.4807 0.0000
vt 0.9477 0.4807 0.0000
vt 0.9039 0.3930 0.0000
vt 0.9916 0.3930 0.0000
vt 0.9477 0.4807 0.0000
vt 0.9039 0.3930 0.0000
vt 0.9916 0.3930 0.0000
vt 0.9477 0.4807 0.0000
vt 0.9039 0.3930 0.0000
vt 0.9916 0.3930 0.0000
# 216 texture coords

g Box022
s off
f 2/2/1 1/1/2 3/3/3 4/4/4 
f 7/7/5 5/5/6 6/6/7 8/8/8 
f 41/121/9 42/123/10 6/12/11 5/11/12 
f 42/124/13 43/125/14 8/16/15 6/15/16 
f 43/126/17 44/127/18 7/20/19 8/19/20 
f 44/128/21 41/122/22 5/24/23 7/23/24 
f 9/25/25 11/26/26 12/27/27 10/28/28 
f 13/29/29 14/30/30 16/31/31 15/32/32 
f 9/33/33 10/34/34 14/35/35 13/36/36 
f 10/37/37 12/38/38 16/39/39 14/40/40 
f 12/41/41 11/42/42 15/43/43 16/44/44 
f 11/45/45 9/46/46 13/47/47 15/48/48 
f 17/49/49 19/50/50 20/51/51 18/52/52 
f 21/53/53 22/54/54 24/55/55 23/56/56 
f 17/57/57 18/58/58 22/59/59 21/60/60 
f 18/61/61 20/62/62 24/63/63 22/64/64 
f 20/65/65 19/66/66 23/67/67 24/68/68 
f 19/69/69 17/70/70 21/71/71 23/72/72 
f 25/73/73 26/76/74 28/75/75 27/74/76 
f 29/77/77 31/80/78 32/79/79 30/78/80 
f 25/81/81 29/84/82 30/83/83 26/82/84 
f 26/85/85 30/88/86 32/87/87 28/86/88 
f 28/89/89 32/92/90 31/91/91 27/90/92 
f 27/93/93 31/96/94 29/95/95 25/94/96 
f 33/97/97 34/100/98 36/99/99 35/98/100 
f 37/101/101 39/104/102 40/103/103 38/102/104 
f 33/105/105 37/108/106 38/107/107 34/106/108 
f 34/109/109 38/112/110 40/111/111 36/110/112 
f 36/113/113 40/116/114 39/115/115 35/114/116 
f 35/117/117 39/120/118 37/119/119 33/118/120 
f 46/132/121 42/123/122 41/121/123 45/129/124 
f 53/145/125 47/134/126 43/125/127 
f 48/136/128 44/127/129 43/126/130 47/133/131 
f 45/130/132 41/122/133 44/128/134 54/146/135 
f 1/9/136 2/10/137 50/140/138 49/137/139 
f 2/13/140 4/14/141 51/142/142 50/139/143 
f 4/17/144 3/18/145 52/144/146 51/141/147 
f 3/21/148 1/22/149 49/138/150 52/143/151 
f 45/129/152 49/137/153 50/140/154 46/132/155 
f 46/131/156 50/139/157 51/142/158 53/145/159 
f 51/142/160 47/134/161 53/145/162 
f 47/133/163 51/141/164 52/144/165 48/136/166 
f 48/135/167 52/143/168 49/138/169 54/146/170 
f 49/138/171 45/130/172 54/146/173 
f 42/124/174 46/131/175 53/145/176 43/125/177 
f 44/128/178 48/135/179 54/146/180 
f 55/147/181 57/148/182 58/149/183 56/150/184 
f 56/150/185 64/151/186 65/152/187 55/147/188 
f 58/149/189 66/153/190 64/151/191 56/150/192 
f 57/148/193 67/154/194 66/153/195 58/149/196 
f 55/147/197 65/152/198 67/154/199 57/148/200 
f 59/164/201 60/165/202 63/157/203 
f 60/165/204 62/166/205 63/157/206 
f 62/166/207 61/167/208 63/157/209 
f 61/167/210 59/164/211 63/157/212 
f 60/156/213 59/155/214 69/161/215 68/160/216 
f 62/158/217 60/156/218 68/160/219 70/162/220 
f 61/159/221 62/158/222 70/162/223 71/163/224 
f 59/155/225 61/159/226 71/163/227 69/161/228 
f 72/168/229 73/169/230 76/170/231 
f 73/169/232 75/171/233 76/170/234 
f 75/171/235 74/172/236 76/170/237 
f 74/172/238 72/168/239 76/170/240 
f 73/169/241 72/168/242 78/174/243 77/173/244 
f 75/171/245 73/169/246 77/173/247 79/175/248 
f 74/172/249 75/171/250 79/175/251 80/176/252 
f 72/168/253 74/172/254 80/176/255 78/174/256 
f 81/178/257 82/179/258 83/180/259 84/177/260 
f 78/174/261 80/176/262 83/180/263 82/179/264 
f 80/176/265 79/175/266 84/177/267 83/180/268 
f 79/175/269 77/173/270 81/178/271 84/177/272 
f 77/173/273 78/174/274 86/181/275 85/182/276 
f 78/174/277 82/179/278 87/183/279 86/181/280 
f 82/179/281 81/178/282 88/184/283 87/183/284 
f 81/178/285 77/173/286 85/182/287 88/184/288 
f 89/185/289 93/186/290 90/187/291 
f 90/186/292 93/188/293 92/187/294 
f 92/188/295 93/189/296 91/187/297 
f 91/189/298 93/185/299 89/187/300 
f 90/191/301 94/190/302 95/186/303 89/185/304 
f 92/190/305 96/192/306 94/188/307 90/186/308 
f 91/192/309 97/193/310 96/189/311 92/188/312 
f 89/193/313 95/191/314 97/185/315 91/189/316 
f 98/197/317 101/194/318 100/195/319 99/196/320 
f 95/191/321 99/193/322 100/197/323 97/196/324 
f 97/193/325 100/192/326 101/194/327 96/197/328 
f 96/192/329 101/190/330 98/195/331 94/194/332 
f 94/190/333 102/191/334 103/198/335 95/199/336 
f 95/191/337 103/196/338 104/200/339 99/198/340 
f 99/196/341 104/195/342 105/201/343 98/200/344 
f 98/195/345 105/190/346 102/199/347 94/201/348 
s 8
f 112/202/349 106/203/350 107/204/351 
f 117/205/352 108/206/353 113/207/354 
f 114/208/355 118/209/356 109/210/357 
f 115/211/358 119/212/359 110/213/360 
f 116/214/361 120/215/362 111/216/363 
# 75 polygons - 21 triangles

